<svg width="104" height="104" viewBox="0 0 104 104" fill="none" xmlns="http://www.w3.org/2000/svg">
<rect width="104" height="104" rx="20" fill="#2563EB"/>
<mask id="mask0_122_1052" style="mask-type:alpha" maskUnits="userSpaceOnUse" x="20" y="20" width="64" height="64">
<rect x="20" y="20" width="64" height="64" fill="#D9D9D9"/>
</mask>
<g mask="url(#mask0_122_1052)">
<path d="M37.3333 73.3333C33.2888 73.3333 29.8333 71.9333 26.9666 69.1333C24.1 66.3333 22.6666 62.9111 22.6666 58.8667C22.6666 55.4 23.7111 52.3111 25.8 49.6C27.8888 46.8889 30.6222 45.1556 34 44.4C35.1111 40.3111 37.3333 37 40.6666 34.4667C44 31.9333 47.7777 30.6667 52 30.6667C57.2 30.6667 61.6111 32.4778 65.2333 36.1C68.8555 39.7222 70.6666 44.1333 70.6666 49.3333C73.7333 49.6889 76.2777 51.0111 78.3 53.3C80.3222 55.5889 81.3333 58.2667 81.3333 61.3333C81.3333 64.6667 80.1666 67.5 77.8333 69.8333C75.5 72.1667 72.6666 73.3333 69.3333 73.3333H37.3333Z" fill="#EFF6FF"/>
</g>
</svg>
